<svg width="48" height="48" viewBox="0 0 48 48" fill="none" xmlns="http://www.w3.org/2000/svg">
<g clip-path="url(#clip0_11_250)">
<path d="M24 45C18.4305 45 13.089 42.7875 9.15076 38.8492C5.21249 34.911 3 29.5695 3 24C3 18.4305 5.21249 13.089 9.15076 9.15076C13.089 5.21249 18.4305 3 24 3C29.5695 3 34.911 5.21249 38.8492 9.15076C42.7875 13.089 45 18.4305 45 24C45 29.5695 42.7875 34.911 38.8492 38.8492C34.911 42.7875 29.5695 45 24 45ZM24 48C30.3652 48 36.4697 45.4714 40.9706 40.9706C45.4714 36.4697 48 30.3652 48 24C48 17.6348 45.4714 11.5303 40.9706 7.02944C36.4697 2.52856 30.3652 0 24 0C17.6348 0 11.5303 2.52856 7.02944 7.02944C2.52856 11.5303 0 17.6348 0 24C0 30.3652 2.52856 36.4697 7.02944 40.9706C11.5303 45.4714 17.6348 48 24 48Z" fill="#0909EA"/>
<path d="M15.765 17.358C15.7609 17.4549 15.7766 17.5516 15.8113 17.6421C15.8459 17.7327 15.8987 17.8152 15.9664 17.8846C16.0342 17.9541 16.1154 18.0089 16.2051 18.0457C16.2947 18.0826 16.391 18.1007 16.488 18.099H18.963C19.377 18.099 19.707 17.76 19.761 17.349C20.031 15.381 21.381 13.947 23.787 13.947C25.845 13.947 27.729 14.976 27.729 17.451C27.729 19.356 26.607 20.232 24.834 21.564C22.815 23.031 21.216 24.744 21.33 27.525L21.339 28.176C21.3421 28.3728 21.4225 28.5605 21.5628 28.6986C21.7032 28.8367 21.8921 28.914 22.089 28.914H24.522C24.7209 28.914 24.9117 28.835 25.0523 28.6943C25.193 28.5537 25.272 28.3629 25.272 28.164V27.849C25.272 25.695 26.091 25.068 28.302 23.391C30.129 22.002 32.034 20.46 32.034 17.223C32.034 12.69 28.206 10.5 24.015 10.5C20.214 10.5 16.05 12.27 15.765 17.358ZM20.436 34.647C20.436 36.246 21.711 37.428 23.466 37.428C25.293 37.428 26.55 36.246 26.55 34.647C26.55 32.991 25.29 31.827 23.463 31.827C21.711 31.827 20.436 32.991 20.436 34.647Z" fill="#0909EA"/>
</g>
<defs>
<clipPath id="clip0_11_250">
<rect width="48" height="48" rx="5" fill="white"/>
</clipPath>
</defs>
</svg>
