<svg width="24" height="24" viewBox="0 0 24 24" fill="none" xmlns="http://www.w3.org/2000/svg">
<g clip-path="url(#clip0_35_276)">
<path d="M7.01144 2.03995C7.62918 2.64331 7.9965 3.45754 8.04001 4.31995L11.1772 1.19995C11.2849 1.07915 11.417 0.982496 11.5647 0.916313C11.7124 0.850131 11.8724 0.815918 12.0343 0.815918C12.1962 0.815918 12.3562 0.850131 12.5039 0.916313C12.6516 0.982496 12.7837 1.07915 12.8914 1.19995L15.4286 3.83995C15.0682 4.01469 14.7383 4.24621 14.4514 4.52566C13.8408 5.19715 13.5122 6.07794 13.5337 6.98528C13.5553 7.89261 13.9253 8.75682 14.5671 9.39859C15.2089 10.0403 16.0731 10.4104 16.9804 10.4319C17.8877 10.4535 18.7685 10.1248 19.44 9.51423C19.7195 9.22737 19.951 8.89744 20.1257 8.53709L22.8 11.1771C22.9208 11.2848 23.0175 11.4169 23.0836 11.5646C23.1498 11.7123 23.184 11.8724 23.184 12.0342C23.184 12.1961 23.1498 12.3561 23.0836 12.5039C23.0175 12.6516 22.9208 12.7836 22.8 12.8914L19.68 15.96C20.3558 16.0008 21.0053 16.236 21.5506 16.6372C22.0959 17.0384 22.5137 17.5886 22.7538 18.2216C22.9939 18.8546 23.046 19.5435 22.9039 20.2054C22.7618 20.8673 22.4316 21.4741 21.9529 21.9528C21.4742 22.4315 20.8674 22.7618 20.2055 22.9038C19.5435 23.0459 18.8547 22.9938 18.2217 22.7537C17.5887 22.5137 17.0385 22.0959 16.6373 21.5506C16.2361 21.0053 16.0009 20.3557 15.96 19.6799L12.8229 22.7999C12.7151 22.9207 12.5831 23.0174 12.4353 23.0836C12.2876 23.1498 12.1276 23.184 11.9657 23.184C11.8039 23.184 11.6438 23.1498 11.4961 23.0836C11.3484 23.0174 11.2163 22.9207 11.1086 22.7999L8.57144 20.1599C8.93179 19.9852 9.26171 19.7537 9.54858 19.4742C10.2101 18.8082 10.5799 17.9066 10.5767 16.9678C10.5735 16.0291 10.1975 15.13 9.53144 14.4685C8.86537 13.807 7.96378 13.4372 7.02503 13.4404C6.08628 13.4436 5.18725 13.8196 4.52572 14.4857C4.24627 14.7725 4.01475 15.1025 3.84001 15.4628L1.20001 12.8228C1.07921 12.7151 0.982557 12.583 0.916374 12.4353C0.850192 12.2876 0.815979 12.1275 0.815979 11.9657C0.815979 11.8038 0.850192 11.6438 0.916374 11.496C0.982557 11.3483 1.07921 11.2163 1.20001 11.1085L4.32001 8.03995C3.4576 7.99644 2.64337 7.62912 2.04001 7.01138C1.38076 6.35212 1.01039 5.45799 1.01039 4.52566C1.01039 3.59334 1.38076 2.6992 2.04001 2.03995C2.69926 1.3807 3.5934 1.01033 4.52572 1.01033C5.45805 1.01033 6.35219 1.3807 7.01144 2.03995Z" stroke="url(#paint0_linear_35_276)" stroke-width="1.71429" stroke-linecap="round" stroke-linejoin="round"/>
</g>
<defs>
<linearGradient id="paint0_linear_35_276" x1="12" y1="0.815918" x2="12" y2="23.184" gradientUnits="userSpaceOnUse">
<stop stop-color="#2F37FF"/>
<stop offset="1" stop-color="#0909EA"/>
</linearGradient>
<clipPath id="clip0_35_276">
<rect width="24" height="24" fill="white"/>
</clipPath>
</defs>
</svg>
