<svg width="48" height="48" viewBox="0 0 48 48" fill="none" xmlns="http://www.w3.org/2000/svg">
<g clip-path="url(#clip0_77_12)">
<path d="M10.9625 3.98429C10.7854 3.75648 10.5618 3.56895 10.3067 3.43417C10.0515 3.29939 9.77063 3.22044 9.48263 3.20256C9.19463 3.18468 8.90612 3.22829 8.63626 3.33049C8.36641 3.43268 8.12139 3.59113 7.91747 3.79529L4.81547 6.90029C3.36647 8.35229 2.83247 10.4073 3.46547 12.2103C6.09269 19.6731 10.3664 26.4486 15.9695 32.0343C21.5553 37.6373 28.3308 41.911 35.7935 44.5383C37.5965 45.1713 39.6515 44.6373 41.1035 43.1883L44.2055 40.0863C44.4096 39.8824 44.5681 39.6374 44.6703 39.3675C44.7725 39.0977 44.8161 38.8091 44.7982 38.5211C44.7803 38.2331 44.7014 37.9522 44.5666 37.6971C44.4318 37.4419 44.2443 37.2184 44.0165 37.0413L37.0955 31.6593C36.8521 31.4705 36.569 31.3395 36.2676 31.2761C35.9662 31.2127 35.6543 31.2186 35.3555 31.2933L28.7855 32.9343C27.9085 33.1535 26.9897 33.1418 26.1186 32.9005C25.2475 32.6592 24.4537 32.1965 23.8145 31.5573L16.4465 24.1863C15.8068 23.5474 15.3435 22.7537 15.1016 21.8826C14.8598 21.0114 14.8477 20.0925 15.0665 19.2153L16.7105 12.6453C16.7852 12.3465 16.7911 12.0346 16.7277 11.7332C16.6643 11.4318 16.5332 11.1487 16.3445 10.9053L10.9625 3.98429ZM5.65247 1.53329C6.17746 1.00814 6.80816 0.600686 7.50269 0.337978C8.19723 0.0752709 8.9397 -0.0366751 9.68082 0.00957378C10.4219 0.0558226 11.1447 0.259208 11.8012 0.606225C12.4577 0.953242 13.0329 1.43595 13.4885 2.02229L18.8705 8.94029C19.8575 10.2093 20.2055 11.8623 19.8155 13.4223L18.1745 19.9923C18.0896 20.3326 18.0942 20.689 18.1878 21.027C18.2813 21.365 18.4607 21.6731 18.7085 21.9213L26.0795 29.2923C26.328 29.5406 26.6366 29.7202 26.9751 29.8138C27.3137 29.9074 27.6707 29.9117 28.0115 29.8263L34.5785 28.1853C35.3483 27.9928 36.1518 27.9779 36.9283 28.1416C37.7048 28.3053 38.4339 28.6434 39.0605 29.1303L45.9785 34.5123C48.4655 36.4473 48.6935 40.1223 46.4675 42.3453L43.3655 45.4473C41.1455 47.6673 37.8275 48.6423 34.7345 47.5533C26.818 44.7679 19.6303 40.2358 13.7045 34.2933C7.76234 28.3683 3.2303 21.1817 0.444474 13.2663C-0.641526 10.1763 0.333474 6.85529 2.55347 4.63529L5.65547 1.53329H5.65247Z" fill="#0909EA"/>
</g>
<defs>
<clipPath id="clip0_77_12">
<rect width="48" height="48" fill="white"/>
</clipPath>
</defs>
</svg>
