<svg width="24" height="24" viewBox="0 0 24 24" fill="none" xmlns="http://www.w3.org/2000/svg">
<path d="M17.5 3.5C15.55 3.5 13.45 3.9 12 5C10.55 3.9 8.45 3.5 6.5 3.5C5.05 3.5 3.51 3.72 2.22 4.29C1.49 4.62 1 5.33 1 6.14V17.42C1 18.72 2.22 19.68 3.48 19.36C4.46 19.11 5.5 19 6.5 19C8.06 19 9.72 19.26 11.06 19.92C11.66 20.22 12.34 20.22 12.93 19.92C14.27 19.25 15.93 19 17.49 19C18.49 19 19.53 19.11 20.51 19.36C21.77 19.69 22.99 18.73 22.99 17.42V6.14C22.99 5.33 22.5 4.62 21.77 4.29C20.49 3.72 18.95 3.5 17.5 3.5ZM21 16.23C21 16.86 20.42 17.32 19.8 17.21C19.05 17.07 18.27 17.01 17.5 17.01C15.8 17.01 13.35 17.66 12 18.51V7C13.35 6.15 15.8 5.5 17.5 5.5C18.42 5.5 19.33 5.59 20.2 5.78C20.66 5.88 21 6.29 21 6.76V16.23Z" fill="url(#paint0_linear_35_209)"/>
<path d="M13.9799 10.01C13.6599 10.01 13.3699 9.81 13.2699 9.49C13.1399 9.1 13.3599 8.66998 13.7499 8.54998C15.2899 8.04998 17.2799 7.88998 19.1099 8.09998C19.5199 8.14998 19.8199 8.51998 19.7699 8.92998C19.7199 9.34 19.3499 9.64 18.9399 9.59C17.3199 9.4 15.5499 9.55 14.2099 9.98C14.1299 9.99 14.0499 10.01 13.9799 10.01Z" fill="url(#paint1_linear_35_209)"/>
<path d="M13.9799 12.67C13.6599 12.67 13.3699 12.47 13.2699 12.15C13.1399 11.76 13.3599 11.33 13.7499 11.21C15.2799 10.71 17.2799 10.55 19.1099 10.76C19.5199 10.81 19.8199 11.18 19.7699 11.59C19.7199 12 19.3499 12.3 18.9399 12.25C17.3199 12.06 15.5499 12.21 14.2099 12.64C14.1299 12.66 14.0499 12.67 13.9799 12.67Z" fill="url(#paint2_linear_35_209)"/>
<path d="M13.9799 15.33C13.6599 15.33 13.3699 15.13 13.2699 14.81C13.1399 14.42 13.3599 13.99 13.7499 13.87C15.2799 13.37 17.2799 13.21 19.1099 13.42C19.5199 13.47 19.8199 13.84 19.7699 14.25C19.7199 14.66 19.3499 14.95 18.9399 14.91C17.3199 14.72 15.5499 14.87 14.2099 15.3C14.1299 15.32 14.0499 15.33 13.9799 15.33Z" fill="url(#paint3_linear_35_209)"/>
<defs>
<linearGradient id="paint0_linear_35_209" x1="11.995" y1="3.5" x2="11.995" y2="20.145" gradientUnits="userSpaceOnUse">
<stop stop-color="#2F37FF"/>
<stop offset="1" stop-color="#0909EA"/>
</linearGradient>
<linearGradient id="paint1_linear_35_209" x1="16.5039" y1="8.00989" x2="16.5039" y2="10.01" gradientUnits="userSpaceOnUse">
<stop stop-color="#2F37FF"/>
<stop offset="1" stop-color="#0909EA"/>
</linearGradient>
<linearGradient id="paint2_linear_35_209" x1="16.5039" y1="10.6699" x2="16.5039" y2="12.67" gradientUnits="userSpaceOnUse">
<stop stop-color="#2F37FF"/>
<stop offset="1" stop-color="#0909EA"/>
</linearGradient>
<linearGradient id="paint3_linear_35_209" x1="16.5039" y1="13.33" x2="16.5039" y2="15.33" gradientUnits="userSpaceOnUse">
<stop stop-color="#2F37FF"/>
<stop offset="1" stop-color="#0909EA"/>
</linearGradient>
</defs>
</svg>
