<svg width="24" height="24" viewBox="0 0 24 24" fill="none" xmlns="http://www.w3.org/2000/svg">
<path d="M17.5 2.5C15.55 2.5 13.45 2.9 12 4C10.55 2.9 8.45 2.5 6.5 2.5C5.05 2.5 3.51 2.72 2.22 3.29C1.49 3.62 1 4.33 1 5.14V16.42C1 17.72 2.22 18.68 3.48 18.36C4.46 18.11 5.5 18 6.5 18C8.06 18 9.72 18.26 11.06 18.92C11.66 19.22 12.34 19.22 12.93 18.92C14.27 18.25 15.93 18 17.49 18C18.49 18 19.53 18.11 20.51 18.36C21.77 18.69 22.99 17.73 22.99 16.42V5.14C22.99 4.33 22.5 3.62 21.77 3.29C20.49 2.72 18.95 2.5 17.5 2.5ZM21 15.23C21 15.86 20.42 16.32 19.8 16.21C19.05 16.07 18.27 16.01 17.5 16.01C15.8 16.01 13.35 16.66 12 17.51V6C13.35 5.15 15.8 4.5 17.5 4.5C18.42 4.5 19.33 4.59 20.2 4.78C20.66 4.88 21 5.29 21 5.76V15.23Z" fill="url(#paint0_linear_35_209)"/>
<path d="M13.9799 9.01C13.6599 9.01 13.3699 8.81 13.2699 8.49C13.1399 8.1 13.3599 7.66998 13.7499 7.54998C15.2899 7.04998 17.2799 6.88998 19.1099 7.09998C19.5199 7.14998 19.8199 7.51998 19.7699 7.92998C19.7199 8.34 19.3499 8.64 18.9399 8.59C17.3199 8.4 15.5499 8.55 14.2099 8.98C14.1299 8.99 14.0499 9.01 13.9799 9.01Z" fill="url(#paint1_linear_35_209)"/>
<path d="M13.9799 11.67C13.6599 11.67 13.3699 11.47 13.2699 11.15C13.1399 10.76 13.3599 10.33 13.7499 10.21C15.2799 9.71001 17.2799 9.55001 19.1099 9.76001C19.5199 9.81001 19.8199 10.18 19.7699 10.59C19.7199 11 19.3499 11.3 18.9399 11.25C17.3199 11.06 15.5499 11.21 14.2099 11.64C14.1299 11.66 14.0499 11.67 13.9799 11.67Z" fill="url(#paint2_linear_35_209)"/>
<path d="M13.9799 14.33C13.6599 14.33 13.3699 14.13 13.2699 13.81C13.1399 13.42 13.3599 12.99 13.7499 12.87C15.2799 12.37 17.2799 12.21 19.1099 12.42C19.5199 12.47 19.8199 12.84 19.7699 13.25C19.7199 13.66 19.3499 13.95 18.9399 13.91C17.3199 13.72 15.5499 13.87 14.2099 14.3C14.1299 14.32 14.0499 14.33 13.9799 14.33Z" fill="url(#paint3_linear_35_209)"/>
<defs>
<linearGradient id="paint0_linear_35_209" x1="11.995" y1="2.5" x2="11.995" y2="19.145" gradientUnits="userSpaceOnUse">
<stop stop-color="#2F37FF"/>
<stop offset="1" stop-color="#0909EA"/>
</linearGradient>
<linearGradient id="paint1_linear_35_209" x1="16.5039" y1="7.00989" x2="16.5039" y2="9.01" gradientUnits="userSpaceOnUse">
<stop stop-color="#2F37FF"/>
<stop offset="1" stop-color="#0909EA"/>
</linearGradient>
<linearGradient id="paint2_linear_35_209" x1="16.5039" y1="9.66992" x2="16.5039" y2="11.67" gradientUnits="userSpaceOnUse">
<stop stop-color="#2F37FF"/>
<stop offset="1" stop-color="#0909EA"/>
</linearGradient>
<linearGradient id="paint3_linear_35_209" x1="16.5039" y1="12.33" x2="16.5039" y2="14.33" gradientUnits="userSpaceOnUse">
<stop stop-color="#2F37FF"/>
<stop offset="1" stop-color="#0909EA"/>
</linearGradient>
</defs>
</svg>
