<svg width="129" height="129" viewBox="0 0 129 129" fill="none" xmlns="http://www.w3.org/2000/svg">
<path d="M19.1298 114.176L9.07581 1.40479H119.556L109.492 114.159L64.2488 126.702L19.1298 114.176Z" fill="#2F37FF"/>
<path d="M64.3168 117.115L100.876 106.979L109.477 10.6245H64.3168V117.115Z" fill="#3F80FF"/>
<path d="M64.3168 51.4818H82.6188L83.8828 37.3188H64.3168V23.4878H98.9988L98.6668 27.1988L95.2668 65.3128H64.3168V51.4818Z" fill="white"/>
<path d="M64.3988 87.4015L64.3378 87.4195L48.9348 83.2605L47.9498 72.2295H34.0677L36.0047 93.9465L64.3358 101.809L64.3988 101.791V87.4015Z" fill="#EBEBEB"/>
<path d="M81.4428 64.7275L79.7768 83.2495L64.3508 87.4135V101.804L92.7048 93.9455L92.9128 91.6085L95.3188 64.7275H81.4428Z" fill="white"/>
<path d="M64.3638 23.4878V37.3188H30.9558L30.6788 34.2108L30.0488 27.1988L29.7178 23.4878H64.3638ZM64.3168 51.4838V65.3148H49.1078L48.8308 62.2068L48.1998 55.1948L47.8698 51.4838H64.3168Z" fill="#EBEBEB"/>
</svg>
