<svg width="24" height="24" viewBox="0 0 24 24" fill="none" xmlns="http://www.w3.org/2000/svg">
<g clip-path="url(#clip0_75_2)">
<path d="M6 18V4.28575C6 3.37644 6.36122 2.50436 7.00421 1.86138C7.64719 1.2184 8.51926 0.857178 9.42857 0.857178H20.1429" stroke="#0909EA" stroke-width="1.71429" stroke-linecap="round" stroke-linejoin="round"/>
<path d="M17.1429 6V19.7143C17.1429 20.6236 16.7816 21.4957 16.1387 22.1387C15.4957 22.7816 14.6236 23.1429 13.7143 23.1429" stroke="#0909EA" stroke-width="1.71429" stroke-linecap="round" stroke-linejoin="round"/>
<path d="M10.2857 19.7143V18.8571C10.2857 18.6298 10.1954 18.4118 10.0347 18.2511C9.87392 18.0903 9.6559 18 9.42858 18H1.71429C1.48696 18 1.26894 18.0903 1.1082 18.2511C0.947453 18.4118 0.857147 18.6298 0.857147 18.8571V19.7143C0.857147 20.6236 1.21837 21.4957 1.86135 22.1387C2.50433 22.7816 3.3764 23.1429 4.28572 23.1429H13.7143C12.805 23.1429 11.9329 22.7816 11.2899 22.1387C10.6469 21.4957 10.2857 20.6236 10.2857 19.7143Z" stroke="#0909EA" stroke-width="1.71429" stroke-linecap="round" stroke-linejoin="round"/>
<path d="M20.1429 0.857178C20.9385 0.857178 21.7016 1.17325 22.2642 1.73586C22.8268 2.29847 23.1429 3.06153 23.1429 3.85718V5.14289C23.1429 5.37022 23.0525 5.58824 22.8918 5.74898C22.7311 5.90973 22.513 6.00003 22.2857 6.00003H17.1429V3.85718C17.1429 3.06153 17.4589 2.29847 18.0215 1.73586C18.5841 1.17325 19.3472 0.857178 20.1429 0.857178Z" stroke="#0909EA" stroke-width="1.71429" stroke-linecap="round" stroke-linejoin="round"/>
<path d="M10.2857 6.85718H12.8571" stroke="#0909EA" stroke-width="1.71429" stroke-linecap="round" stroke-linejoin="round"/>
<path d="M10.2857 12H12.8571" stroke="#0909EA" stroke-width="1.71429" stroke-linecap="round" stroke-linejoin="round"/>
</g>
<defs>
<clipPath id="clip0_75_2">
<rect width="24" height="24" fill="white"/>
</clipPath>
</defs>
</svg>
