<svg width="24" height="24" viewBox="0 0 24 24" fill="none" xmlns="http://www.w3.org/2000/svg">
<path d="M14.742 4.5H20.715C21.1319 4.49996 21.5442 4.5868 21.9256 4.75499C22.3071 4.92317 22.6493 5.16902 22.9304 5.47683C23.2116 5.78465 23.4255 6.14768 23.5585 6.54276C23.6915 6.93785 23.7407 7.35633 23.703 7.7715L22.7475 18.2715C22.6798 19.0169 22.3359 19.71 21.7833 20.2148C21.2307 20.7197 20.5094 20.9997 19.761 21H4.2375C3.48906 20.9997 2.76775 20.7197 2.2152 20.2148C1.66264 19.71 1.31873 19.0169 1.251 18.2715L0.2955 7.7715C0.231579 7.07667 0.413091 6.38141 0.8085 5.8065L0.75 4.5C0.75 3.70435 1.06607 2.94129 1.62868 2.37868C2.19129 1.81607 2.95435 1.5 3.75 1.5H9.258C10.0536 1.50017 10.8165 1.81635 11.379 2.379L12.621 3.621C13.1835 4.18365 13.9464 4.49983 14.742 4.5ZM2.259 4.68C2.58 4.563 2.925 4.5 3.285 4.5H11.379L10.3185 3.4395C10.0373 3.15818 9.65579 3.00008 9.258 3H3.75C3.35706 2.99993 2.97979 3.15405 2.69929 3.42922C2.41879 3.70439 2.25747 4.07864 2.25 4.4715L2.259 4.68Z" fill="#0909EA"/>
</svg>
