<svg width="24" height="24" viewBox="0 0 24 24" fill="none" xmlns="http://www.w3.org/2000/svg">
<path d="M15.717 2.4705C15.746 2.37634 15.7561 2.27741 15.7468 2.17933C15.7375 2.08126 15.709 1.98598 15.6629 1.89892C15.6168 1.81187 15.554 1.73475 15.4781 1.67196C15.4022 1.60918 15.3147 1.56196 15.2205 1.533C15.1263 1.50405 15.0274 1.49392 14.9293 1.5032C14.8313 1.51248 14.736 1.54099 14.6489 1.58709C14.5619 1.63319 14.4847 1.69599 14.422 1.7719C14.3592 1.84781 14.312 1.93534 14.283 2.0295L8.283 21.5295C8.22452 21.7197 8.24397 21.9253 8.33709 22.1011C8.4302 22.2769 8.58934 22.4085 8.7795 22.467C8.96966 22.5255 9.17526 22.506 9.35108 22.4129C9.52689 22.3198 9.65852 22.1607 9.717 21.9705L15.717 2.4705ZM7.281 6.219C7.35084 6.28867 7.40626 6.37143 7.44407 6.46255C7.48188 6.55367 7.50134 6.65135 7.50134 6.75C7.50134 6.84865 7.48188 6.94633 7.44407 7.03745C7.40626 7.12857 7.35084 7.21133 7.281 7.281L2.5605 12L7.281 16.719C7.42183 16.8598 7.50095 17.0508 7.50095 17.25C7.50095 17.4492 7.42183 17.6402 7.281 17.781C7.14017 17.9218 6.94916 18.0009 6.75 18.0009C6.55083 18.0009 6.35983 17.9218 6.219 17.781L0.968998 12.531C0.899153 12.4613 0.843739 12.3786 0.805929 12.2875C0.768119 12.1963 0.748657 12.0987 0.748657 12C0.748657 11.9014 0.768119 11.8037 0.805929 11.7126C0.843739 11.6214 0.899153 11.5387 0.968998 11.469L6.219 6.219C6.28867 6.14916 6.37143 6.09374 6.46255 6.05593C6.55367 6.01812 6.65135 5.99866 6.75 5.99866C6.84865 5.99866 6.94633 6.01812 7.03745 6.05593C7.12857 6.09374 7.21133 6.14916 7.281 6.219ZM16.719 6.219C16.6492 6.28867 16.5937 6.37143 16.5559 6.46255C16.5181 6.55367 16.4987 6.65135 16.4987 6.75C16.4987 6.84865 16.5181 6.94633 16.5559 7.03745C16.5937 7.12857 16.6492 7.21133 16.719 7.281L21.4395 12L16.719 16.719C16.6493 16.7887 16.594 16.8715 16.5562 16.9626C16.5185 17.0537 16.4991 17.1514 16.4991 17.25C16.4991 17.3486 16.5185 17.4463 16.5562 17.5374C16.594 17.6285 16.6493 17.7113 16.719 17.781C16.7887 17.8507 16.8715 17.906 16.9626 17.9438C17.0537 17.9815 17.1514 18.0009 17.25 18.0009C17.3486 18.0009 17.4463 17.9815 17.5374 17.9438C17.6285 17.906 17.7113 17.8507 17.781 17.781L23.031 12.531C23.1008 12.4613 23.1563 12.3786 23.1941 12.2875C23.2319 12.1963 23.2513 12.0987 23.2513 12C23.2513 11.9014 23.2319 11.8037 23.1941 11.7126C23.1563 11.6214 23.1008 11.5387 23.031 11.469L17.781 6.219C17.7113 6.14916 17.6286 6.09374 17.5374 6.05593C17.4463 6.01812 17.3486 5.99866 17.25 5.99866C17.1513 5.99866 17.0537 6.01812 16.9625 6.05593C16.8714 6.09374 16.7887 6.14916 16.719 6.219Z" fill="#0909EA"/>
</svg>
