<svg width="129" height="129" viewBox="0 0 129 129" fill="none" xmlns="http://www.w3.org/2000/svg">
<path d="M19.7212 113.929L9.71619 1.71387H119.652L109.636 113.912L64.6172 126.392L19.7212 113.929Z" fill="#2F37FF"/>
<path d="M64.6842 116.853L101.062 106.767L109.621 10.8887H64.6842V116.853Z" fill="#3F80FF"/>
<path d="M64.6842 52.5079H46.4722L45.2142 38.4139H64.6842V24.6519H30.1732L30.5032 28.3439L33.8852 66.2709H64.6842V52.5079ZM64.6842 88.2509L64.6232 88.2679L49.2962 84.1279L48.3172 73.1529H34.5002L36.4282 94.7619L64.6212 102.588L64.6842 102.571V88.2509Z" fill="#EBEBEB"/>
<path d="M64.6362 52.5079V66.2709H81.5832L79.9862 84.1199L64.6362 88.2629V102.582L92.8512 94.7619L93.0582 92.4369L96.2922 56.2039L96.6272 52.5079H92.9192H64.6362ZM64.6362 24.6519V38.4139H97.8802L98.1562 35.3219L98.7842 28.3439L99.1132 24.6519H64.6362Z" fill="white"/>
</svg>
