<svg width="129" height="129" viewBox="0 0 129 129" fill="none" xmlns="http://www.w3.org/2000/svg">
<g clip-path="url(#clip0_37_336)">
<path d="M0.0526123 0.0527344H128.053V128.054H0.0526123V0.0527344Z" fill="#2F37FF"/>
<path d="M116.4 96.7886C115.483 91.0776 111.759 86.2806 100.728 81.8076C96.8957 80.0466 92.6237 78.7856 91.3507 75.8816C90.8987 74.1916 90.8387 73.2396 91.1247 72.2166C91.9457 68.8966 95.9087 67.8616 99.0497 68.8136C101.073 69.4916 102.988 71.0506 104.143 73.5376C109.545 70.0396 109.534 70.0626 113.306 67.6586C111.925 65.5176 111.188 64.5296 110.284 63.6136C107.035 59.9846 102.608 58.1156 95.5277 58.2586L91.8397 58.7356C88.3057 59.6286 84.9377 61.4836 82.9627 63.9706C77.0367 70.6946 78.7267 82.4626 85.9377 87.3056C93.0417 92.6376 103.478 93.8506 104.811 98.8366C106.108 104.941 100.325 106.917 94.5767 106.215C90.3407 105.334 87.9847 103.181 85.4377 99.2656C80.7497 101.979 80.7497 101.979 75.9297 104.751C77.0727 107.25 78.2737 108.381 80.1897 110.546C89.2577 119.744 111.95 119.292 116.02 105.37C116.185 104.892 117.281 101.704 116.4 96.7886ZM69.5147 58.9956H57.8057L57.7577 89.2676C57.7577 95.7056 58.0907 101.608 57.0437 103.417C55.3307 106.975 50.8917 106.534 48.8687 105.844C46.8097 104.832 45.7627 103.393 44.5497 101.359C44.2167 100.775 43.9667 100.323 43.8827 100.288L34.3627 106.118C35.9457 109.367 38.2777 112.187 41.2647 114.019C45.7267 116.697 51.7237 117.518 57.9957 116.078C62.0777 114.889 65.5997 112.426 67.4437 108.677C70.1097 103.762 69.5377 97.8126 69.5137 91.2326C69.5737 80.4976 69.5147 69.7646 69.5147 58.9956Z" fill="white"/>
</g>
<defs>
<clipPath id="clip0_37_336">
<rect width="128" height="128" fill="white" transform="translate(0.0526123 0.0527344)"/>
</clipPath>
</defs>
</svg>
