<svg width="122" height="82" viewBox="0 0 122 82" fill="none" xmlns="http://www.w3.org/2000/svg">
<path d="M83.6558 22.876C83.6558 31.0887 79.8702 36.2078 75.1393 39.2822C70.4018 42.361 64.7099 43.3916 60.9125 43.3934C53.3073 42.627 39.9982 37.0531 38.7084 21.1334C38.1458 14.1893 35.8927 9.10297 32.4197 5.75238C28.9466 2.40168 24.2753 0.808141 18.918 0.807506C15.898 0.711173 11.3745 1.5249 7.59999 4.28458C3.81371 7.05285 0.8 11.766 0.8 19.423C0.8 27.0759 3.62415 31.8869 7.74315 34.7758C11.8498 37.6562 17.2159 38.6066 22.2738 38.6066C28.1096 38.6066 33.0424 40.4627 36.4714 43.943C39.8997 47.4227 41.8459 52.5474 41.6681 59.1261C41.3865 69.5471 45.3337 75.0831 49.8064 78.0023C54.2629 80.9109 59.2077 81.2 60.9025 81.2C62.5986 81.2 67.2651 80.9105 71.5125 77.9998C75.7735 75.0798 79.5771 69.5462 79.5771 59.1315C79.5771 50.9015 82.6308 45.7868 86.9801 42.721C91.3414 39.6469 97.0323 38.6141 102.33 38.6141C107.048 38.6141 112.166 37.2509 115.884 34.0148C119.611 30.7705 121.906 25.6647 121.004 18.2404C120.157 11.2805 117.049 6.9151 113.363 4.29368C109.684 1.67697 105.442 0.807506 102.33 0.807506C99.8002 0.807506 95.1282 1.09503 91.0866 4.01047C87.0328 6.93476 83.6558 12.4706 83.6558 22.876Z" fill="#3F80FF" stroke="#0909EA" stroke-width="0.4"/>
</svg>
