<svg width="24" height="24" viewBox="0 0 24 24" fill="none" xmlns="http://www.w3.org/2000/svg">
<g clip-path="url(#clip0_88_164)">
<path d="M3 3C2.20435 3 1.44129 3.31607 0.87868 3.87868C0.316071 4.44129 0 5.20435 0 6L0 18.015C0.00396529 18.808 0.321786 19.5673 0.883965 20.1266C1.44615 20.686 2.20694 21 3 21H11.25C11.4489 21 11.6397 20.921 11.7803 20.7803C11.921 20.6397 12 20.4489 12 20.25C12 20.0511 11.921 19.8603 11.7803 19.7197C11.6397 19.579 11.4489 19.5 11.25 19.5H3C2.66982 19.5 2.34884 19.3911 2.08686 19.1902C1.82487 18.9892 1.63652 18.7074 1.551 18.3885L10.011 13.182L12 14.3745L22.5 8.0745V12.75C22.5 12.9489 22.579 13.1397 22.7197 13.2803C22.8603 13.421 23.0511 13.5 23.25 13.5C23.4489 13.5 23.6397 13.421 23.7803 13.2803C23.921 13.1397 24 12.9489 24 12.75V6C24 5.20435 23.6839 4.44129 23.1213 3.87868C22.5587 3.31607 21.7956 3 21 3H3ZM8.562 12.312L1.5 16.6575V8.0745L8.562 12.312ZM1.5 6.3255V6C1.5 5.60218 1.65804 5.22064 1.93934 4.93934C2.22064 4.65804 2.60218 4.5 3 4.5H21C21.3978 4.5 21.7794 4.65804 22.0607 4.93934C22.342 5.22064 22.5 5.60218 22.5 6V6.3255L12 12.6255L1.5 6.3255Z" fill="#4EAEFF"/>
<path d="M21.3705 21.4035C22.8855 21.4035 23.751 20.118 23.751 18.366V18.051C23.751 15.645 21.96 13.5 18.78 13.5H18.7275C15.63 13.5 13.5 15.54 13.5 18.648V18.969C13.5 22.23 15.657 24 18.537 24H18.603C19.494 24 20.13 23.889 20.4585 23.7375V22.6425C20.091 22.8075 19.449 22.9125 18.6885 22.9125H18.6225C16.6215 22.9125 14.766 21.7305 14.766 18.93V18.6945C14.766 16.209 16.353 14.6085 18.726 14.6085H18.786C21.0885 14.6085 22.512 16.1835 22.512 18.0975V18.2745C22.512 19.737 22.026 20.3595 21.5535 20.3595C21.2055 20.3595 20.9385 20.1375 20.9385 19.7295V16.4445H19.5795V17.298H19.5345C19.4085 16.851 18.9825 16.353 18.1035 16.353C16.9365 16.353 16.215 17.1855 16.215 18.453V19.245C16.215 20.583 16.95 21.396 18.105 21.396C18.8115 21.396 19.449 21.0555 19.626 20.4315H19.6905C19.8675 21.0615 20.616 21.4035 21.3705 21.4035ZM17.691 19.0215V18.681C17.691 17.862 18.0315 17.4945 18.5505 17.4945C18.996 17.4945 19.4085 17.7825 19.4085 18.5565V19.107C19.4085 19.9665 19.029 20.223 18.5625 20.223C18.0315 20.223 17.691 19.9005 17.691 19.023V19.0215Z" fill="#4EAEFF"/>
</g>
<defs>
<clipPath id="clip0_88_164">
<rect width="24" height="24" fill="white"/>
</clipPath>
</defs>
</svg>
