<svg width="48" height="48" viewBox="0 0 48 48" fill="none" xmlns="http://www.w3.org/2000/svg">
<path d="M13.5 18C13.8978 18 14.2794 17.842 14.5607 17.5607C14.842 17.2794 15 16.8978 15 16.5C15 16.1022 14.842 15.7206 14.5607 15.4393C14.2794 15.158 13.8978 15 13.5 15C13.1022 15 12.7206 15.158 12.4393 15.4393C12.158 15.7206 12 16.1022 12 16.5C12 16.8978 12.158 17.2794 12.4393 17.5607C12.7206 17.842 13.1022 18 13.5 18ZM18 18C18.3978 18 18.7794 17.842 19.0607 17.5607C19.342 17.2794 19.5 16.8978 19.5 16.5C19.5 16.1022 19.342 15.7206 19.0607 15.4393C18.7794 15.158 18.3978 15 18 15C17.6022 15 17.2206 15.158 16.9393 15.4393C16.658 15.7206 16.5 16.1022 16.5 16.5C16.5 16.8978 16.658 17.2794 16.9393 17.5607C17.2206 17.842 17.6022 18 18 18ZM24 16.5C24 16.8978 23.842 17.2794 23.5607 17.5607C23.2794 17.842 22.8978 18 22.5 18C22.1022 18 21.7206 17.842 21.4393 17.5607C21.158 17.2794 21 16.8978 21 16.5C21 16.1022 21.158 15.7206 21.4393 15.4393C21.7206 15.158 22.1022 15 22.5 15C22.8978 15 23.2794 15.158 23.5607 15.4393C23.842 15.7206 24 16.1022 24 16.5Z" fill="#0909EA"/>
<path d="M36 3C37.5913 3 39.1174 3.63214 40.2426 4.75736C41.3679 5.88258 42 7.4087 42 9C43.5913 9 45.1174 9.63214 46.2426 10.7574C47.3679 11.8826 48 13.4087 48 15V39C48 40.5913 47.3679 42.1174 46.2426 43.2426C45.1174 44.3679 43.5913 45 42 45H12C10.4087 45 8.88258 44.3679 7.75736 43.2426C6.63214 42.1174 6 40.5913 6 39C4.4087 39 2.88258 38.3679 1.75736 37.2426C0.632141 36.1174 0 34.5913 0 33V9C0 7.4087 0.632141 5.88258 1.75736 4.75736C2.88258 3.63214 4.4087 3 6 3H36ZM6 36V15C6 13.4087 6.63214 11.8826 7.75736 10.7574C8.88258 9.63214 10.4087 9 12 9H39C39 8.20435 38.6839 7.44129 38.1213 6.87868C37.5587 6.31607 36.7956 6 36 6H6C5.20435 6 4.44129 6.31607 3.87868 6.87868C3.31607 7.44129 3 8.20435 3 9V33C3 33.7956 3.31607 34.5587 3.87868 35.1213C4.44129 35.6839 5.20435 36 6 36ZM9 24V39C9 39.7956 9.31607 40.5587 9.87868 41.1213C10.4413 41.6839 11.2044 42 12 42H42C42.7956 42 43.5587 41.6839 44.1213 41.1213C44.6839 40.5587 45 39.7956 45 39V24H9ZM45 21V15C45 14.2044 44.6839 13.4413 44.1213 12.8787C43.5587 12.3161 42.7956 12 42 12H12C11.2044 12 10.4413 12.3161 9.87868 12.8787C9.31607 13.4413 9 14.2044 9 15V21H45Z" fill="#0909EA"/>
</svg>
