<svg width="24" height="24" viewBox="0 0 24 24" fill="none" xmlns="http://www.w3.org/2000/svg">
<g clip-path="url(#clip0_88_169)">
<path d="M9.9737 18.8435L13.7143 22.5789C13.9465 22.8111 14.2342 22.9802 14.5501 23.0699C14.866 23.1597 15.1995 23.1672 15.5192 23.0918C15.8388 23.0164 16.1338 22.8606 16.3763 22.6391C16.6188 22.4176 16.8006 22.1379 16.9046 21.8264L23.0434 3.39265C23.1568 3.05333 23.1734 2.68914 23.0913 2.34092C23.0092 1.99271 22.8317 1.67425 22.5788 1.42128C22.3258 1.16831 22.0073 0.990836 21.6591 0.908764C21.3109 0.826693 20.9467 0.843274 20.6074 0.956648L2.1737 7.10065C1.86317 7.20499 1.58437 7.38679 1.36365 7.62885C1.14292 7.87092 0.987556 8.16526 0.912228 8.48407C0.836901 8.80288 0.844099 9.13564 0.933143 9.45089C1.02219 9.76615 1.19014 10.0535 1.42112 10.2858L6.11998 14.9898L5.96055 20.9298L9.9737 18.8435Z" stroke="#4EAEFF" stroke-width="1.71429" stroke-linecap="round" stroke-linejoin="round"/>
<path d="M22.4931 1.34033L6.12 14.9895" stroke="#4EAEFF" stroke-width="1.71429" stroke-linecap="round" stroke-linejoin="round"/>
</g>
<defs>
<clipPath id="clip0_88_169">
<rect width="24" height="24" fill="white"/>
</clipPath>
</defs>
</svg>
