<svg width="48" height="48" viewBox="0 0 48 48" fill="none" xmlns="http://www.w3.org/2000/svg">
<g clip-path="url(#clip0_11_244)">
<path d="M24 14.262C22.7212 14.262 21.4549 14.5139 20.2735 15.0033C19.092 15.4927 18.0185 16.21 17.1142 17.1142C16.21 18.0185 15.4927 19.092 15.0033 20.2735C14.5139 21.4549 14.262 22.7212 14.262 24C14.262 25.2788 14.5139 26.5451 15.0033 27.7266C15.4927 28.9081 16.21 29.9816 17.1142 30.8858C18.0185 31.7901 19.092 32.5074 20.2735 32.9968C21.4549 33.4861 22.7212 33.738 24 33.738C26.5827 33.738 29.0596 32.7121 30.8858 30.8858C32.7121 29.0596 33.738 26.5827 33.738 24C33.738 21.4173 32.7121 18.9404 30.8858 17.1142C29.0596 15.288 26.5827 14.262 24 14.262ZM17.262 24C17.262 22.213 17.9719 20.4992 19.2355 19.2355C20.4992 17.9719 22.213 17.262 24 17.262C25.7871 17.262 27.5009 17.9719 28.7645 19.2355C30.0281 20.4992 30.738 22.213 30.738 24C30.738 25.7871 30.0281 27.5009 28.7645 28.7645C27.5009 30.0281 25.7871 30.738 24 30.738C22.213 30.738 20.4992 30.0281 19.2355 28.7645C17.9719 27.5009 17.262 25.7871 17.262 24Z" fill="#0909EA"/>
<path d="M29.388 4.02903C27.807 -1.34097 20.193 -1.34097 18.612 4.02903L18.33 4.98603C18.2196 5.36088 18.0267 5.70628 17.7655 5.9969C17.5042 6.28752 17.1813 6.516 16.8202 6.66558C16.4592 6.81517 16.0693 6.88207 15.6791 6.86138C15.2889 6.84069 14.9082 6.73294 14.565 6.54603L13.689 6.06603C8.76903 3.39003 3.39003 8.77203 6.06903 13.689L6.54603 14.565C6.73294 14.9082 6.84069 15.2889 6.86138 15.6791C6.88207 16.0693 6.81517 16.4592 6.66558 16.8202C6.516 17.1813 6.28752 17.5042 5.9969 17.7655C5.70628 18.0267 5.36088 18.2196 4.98603 18.33L4.02903 18.612C-1.34097 20.193 -1.34097 27.807 4.02903 29.388L4.98603 29.67C5.36088 29.7804 5.70628 29.9733 5.9969 30.2346C6.28752 30.4958 6.516 30.8188 6.66558 31.1798C6.81517 31.5408 6.88207 31.9307 6.86138 32.321C6.84069 32.7112 6.73294 33.0919 6.54603 33.435L6.06603 34.311C3.39003 39.231 8.76903 44.613 13.689 41.931L14.565 41.454C14.9082 41.2671 15.2889 41.1594 15.6791 41.1387C16.0693 41.118 16.4592 41.1849 16.8202 41.3345C17.1813 41.4841 17.5042 41.7125 17.7655 42.0032C18.0267 42.2938 18.2196 42.6392 18.33 43.014L18.612 43.971C20.193 49.341 27.807 49.341 29.388 43.971L29.67 43.014C29.7804 42.6392 29.9733 42.2938 30.2346 42.0032C30.4958 41.7125 30.8188 41.4841 31.1798 41.3345C31.5408 41.1849 31.9307 41.118 32.321 41.1387C32.7112 41.1594 33.0919 41.2671 33.435 41.454L34.311 41.934C39.231 44.613 44.613 39.228 41.931 34.311L41.454 33.435C41.2671 33.0919 41.1594 32.7112 41.1387 32.321C41.118 31.9307 41.1849 31.5408 41.3345 31.1798C41.4841 30.8188 41.7125 30.4958 42.0032 30.2346C42.2938 29.9733 42.6392 29.7804 43.014 29.67L43.971 29.388C49.341 27.807 49.341 20.193 43.971 18.612L43.014 18.33C42.6392 18.2196 42.2938 18.0267 42.0032 17.7655C41.7125 17.5042 41.4841 17.1813 41.3345 16.8202C41.1849 16.4592 41.118 16.0693 41.1387 15.6791C41.1594 15.2889 41.2671 14.9082 41.454 14.565L41.934 13.689C44.613 8.76903 39.228 3.39003 34.311 6.06903L33.435 6.54603C33.0919 6.73294 32.7112 6.84069 32.321 6.86138C31.9307 6.88207 31.5408 6.81517 31.1798 6.66558C30.8188 6.516 30.4958 6.28752 30.2346 5.9969C29.9733 5.70628 29.7804 5.36088 29.67 4.98603L29.388 4.02903ZM21.489 4.87803C22.227 2.37303 25.773 2.37303 26.511 4.87803L26.793 5.83503C27.0301 6.63928 27.4441 7.38029 28.0048 8.00372C28.5655 8.62716 29.2586 9.11722 30.0333 9.43796C30.8079 9.75871 31.6446 9.90203 32.4819 9.8574C33.3191 9.81276 34.1358 9.58132 34.872 9.18003L35.745 8.70003C38.037 7.45503 40.545 9.96003 39.297 12.255L38.82 13.131C38.4193 13.8673 38.1885 14.6839 38.1443 15.521C38.1002 16.3581 38.2439 17.1944 38.5649 17.9688C38.8859 18.7431 39.3761 19.4358 39.9995 19.9962C40.623 20.5565 41.3639 20.9702 42.168 21.207L43.122 21.489C45.627 22.227 45.627 25.773 43.122 26.511L42.165 26.793C41.3608 27.0301 40.6198 27.4441 39.9963 28.0048C39.3729 28.5655 38.8828 29.2586 38.5621 30.0333C38.2413 30.8079 38.098 31.6446 38.1427 32.4819C38.1873 33.3191 38.4187 34.1358 38.82 34.872L39.3 35.745C40.545 38.037 38.04 40.545 35.745 39.297L34.872 38.82C34.1356 38.4188 33.3188 38.1874 32.4813 38.143C31.6439 38.0986 30.8071 38.2421 30.0324 38.5632C29.2576 38.8842 28.5646 39.3746 28.0041 39.9984C27.4435 40.6222 27.0297 41.3635 26.793 42.168L26.511 43.122C25.773 45.627 22.227 45.627 21.489 43.122L21.207 42.165C20.9699 41.3612 20.5559 40.6206 19.9954 39.9975C19.435 39.3743 18.7422 38.8845 17.9679 38.5638C17.1936 38.2431 16.3574 38.0996 15.5204 38.144C14.6835 38.1883 13.8671 38.4193 13.131 38.82L12.255 39.3C9.96303 40.545 7.45503 38.04 8.70303 35.745L9.18003 34.872C9.58188 34.1357 9.81378 33.3188 9.85871 32.4811C9.90363 31.6435 9.76045 30.8064 9.43966 30.0314C9.11887 29.2563 8.62861 28.5629 8.00486 28.002C7.38111 27.4411 6.6397 27.027 5.83503 26.79L4.87803 26.508C2.37303 25.77 2.37303 22.224 4.87803 21.486L5.83503 21.204C6.63844 20.9668 7.37864 20.5528 8.00145 19.9926C8.62426 19.4323 9.11392 18.7399 9.43459 17.966C9.75525 17.1921 9.89882 16.3562 9.85477 15.5197C9.81073 14.6831 9.58019 13.867 9.18003 13.131L8.70003 12.255C7.45503 9.96303 9.96003 7.45503 12.255 8.70303L13.131 9.18003C13.8671 9.58075 14.6835 9.81175 15.5204 9.85608C16.3574 9.90042 17.1936 9.75698 17.9679 9.43628C18.7422 9.11557 19.435 8.62571 19.9954 8.00259C20.5559 7.37947 20.9699 6.63886 21.207 5.83503L21.489 4.87803Z" fill="#0909EA"/>
</g>
<defs>
<clipPath id="clip0_11_244">
<rect width="48" height="48" rx="5" fill="white"/>
</clipPath>
</defs>
</svg>
