<svg width="24" height="24" viewBox="0 0 24 24" fill="none" xmlns="http://www.w3.org/2000/svg">
<g clip-path="url(#clip0_88_177)">
<path d="M12 15.4286C14.1302 15.4286 15.8571 13.7017 15.8571 11.5715C15.8571 9.44126 14.1302 7.71436 12 7.71436C9.86975 7.71436 8.14285 9.44126 8.14285 11.5715C8.14285 13.7017 9.86975 15.4286 12 15.4286Z" stroke="#4EAEFF" stroke-width="1.71429" stroke-linecap="round" stroke-linejoin="round"/>
<path d="M18.8571 23.1431C18.2082 21.8839 17.225 20.8277 16.0154 20.0903C14.8058 19.353 13.4166 18.9629 12 18.9629C10.5834 18.9629 9.19414 19.353 7.98457 20.0903C6.77501 20.8277 5.79183 21.8839 5.14285 23.1431" stroke="#4EAEFF" stroke-width="1.71429" stroke-linecap="round" stroke-linejoin="round"/>
<path d="M20.5714 18.1029C21.7879 16.5162 22.5362 14.6207 22.7316 12.6309C22.927 10.641 22.5616 8.6362 21.677 6.84316C20.7923 5.05012 19.4235 3.5404 17.7255 2.48475C16.0275 1.42909 14.068 0.869629 12.0686 0.869629C10.0692 0.869629 8.10963 1.42909 6.41162 2.48475C4.71361 3.5404 3.34486 5.05012 2.46018 6.84316C1.5755 8.6362 1.21019 10.641 1.40556 12.6309C1.60093 14.6207 2.34919 16.5162 3.56571 18.1029" stroke="#4EAEFF" stroke-width="1.71429" stroke-linecap="round" stroke-linejoin="round"/>
</g>
<defs>
<clipPath id="clip0_88_177">
<rect width="24" height="24" fill="white"/>
</clipPath>
</defs>
</svg>
