<svg width="48" height="48" viewBox="0 0 48 48" fill="none" xmlns="http://www.w3.org/2000/svg">
<g clip-path="url(#clip0_11_247)">
<path d="M43.5 9C43.8978 9 44.2794 9.15804 44.5607 9.43934C44.842 9.72064 45 10.1022 45 10.5V37.5C45 37.8978 44.842 38.2794 44.5607 38.5607C44.2794 38.842 43.8978 39 43.5 39H4.5C4.10218 39 3.72064 38.842 3.43934 38.5607C3.15804 38.2794 3 37.8978 3 37.5V10.5C3 10.1022 3.15804 9.72064 3.43934 9.43934C3.72064 9.15804 4.10218 9 4.5 9H43.5ZM4.5 6C3.30653 6 2.16193 6.47411 1.31802 7.31802C0.474106 8.16193 0 9.30653 0 10.5L0 37.5C0 38.6935 0.474106 39.8381 1.31802 40.682C2.16193 41.5259 3.30653 42 4.5 42H43.5C44.6935 42 45.8381 41.5259 46.682 40.682C47.5259 39.8381 48 38.6935 48 37.5V10.5C48 9.30653 47.5259 8.16193 46.682 7.31802C45.8381 6.47411 44.6935 6 43.5 6H4.5Z" fill="#0909EA"/>
<path d="M15 24C15 23.6022 15.158 23.2206 15.4393 22.9393C15.7206 22.658 16.1022 22.5 16.5 22.5H37.5C37.8978 22.5 38.2794 22.658 38.5607 22.9393C38.842 23.2206 39 23.6022 39 24C39 24.3978 38.842 24.7794 38.5607 25.0607C38.2794 25.342 37.8978 25.5 37.5 25.5H16.5C16.1022 25.5 15.7206 25.342 15.4393 25.0607C15.158 24.7794 15 24.3978 15 24ZM15 16.5C15 16.1022 15.158 15.7206 15.4393 15.4393C15.7206 15.158 16.1022 15 16.5 15H37.5C37.8978 15 38.2794 15.158 38.5607 15.4393C38.842 15.7206 39 16.1022 39 16.5C39 16.8978 38.842 17.2794 38.5607 17.5607C38.2794 17.842 37.8978 18 37.5 18H16.5C16.1022 18 15.7206 17.842 15.4393 17.5607C15.158 17.2794 15 16.8978 15 16.5ZM15 31.5C15 31.1022 15.158 30.7206 15.4393 30.4393C15.7206 30.158 16.1022 30 16.5 30H37.5C37.8978 30 38.2794 30.158 38.5607 30.4393C38.842 30.7206 39 31.1022 39 31.5C39 31.8978 38.842 32.2794 38.5607 32.5607C38.2794 32.842 37.8978 33 37.5 33H16.5C16.1022 33 15.7206 32.842 15.4393 32.5607C15.158 32.2794 15 31.8978 15 31.5ZM12 16.5C12 16.8978 11.842 17.2794 11.5607 17.5607C11.2794 17.842 10.8978 18 10.5 18C10.1022 18 9.72064 17.842 9.43934 17.5607C9.15804 17.2794 9 16.8978 9 16.5C9 16.1022 9.15804 15.7206 9.43934 15.4393C9.72064 15.158 10.1022 15 10.5 15C10.8978 15 11.2794 15.158 11.5607 15.4393C11.842 15.7206 12 16.1022 12 16.5ZM12 24C12 24.3978 11.842 24.7794 11.5607 25.0607C11.2794 25.342 10.8978 25.5 10.5 25.5C10.1022 25.5 9.72064 25.342 9.43934 25.0607C9.15804 24.7794 9 24.3978 9 24C9 23.6022 9.15804 23.2206 9.43934 22.9393C9.72064 22.658 10.1022 22.5 10.5 22.5C10.8978 22.5 11.2794 22.658 11.5607 22.9393C11.842 23.2206 12 23.6022 12 24ZM12 31.5C12 31.8978 11.842 32.2794 11.5607 32.5607C11.2794 32.842 10.8978 33 10.5 33C10.1022 33 9.72064 32.842 9.43934 32.5607C9.15804 32.2794 9 31.8978 9 31.5C9 31.1022 9.15804 30.7206 9.43934 30.4393C9.72064 30.158 10.1022 30 10.5 30C10.8978 30 11.2794 30.158 11.5607 30.4393C11.842 30.7206 12 31.1022 12 31.5Z" fill="#0909EA"/>
</g>
<defs>
<clipPath id="clip0_11_247">
<rect width="48" height="48" rx="5" fill="white"/>
</clipPath>
</defs>
</svg>
