<svg width="16" height="16" viewBox="0 0 16 16" fill="none" xmlns="http://www.w3.org/2000/svg">
<g clip-path="url(#clip0_270_5)">
<circle cx="8" cy="8" r="8" fill="#0077FF"/>
<path d="M3.96567 5.54723L4.63337 7.87517L6.06863 5.54723H7.24803L6.45552 10.4055H5.32604L5.77533 7.66599L4.81434 9.29892H3.99687L3.57254 7.66599L3.12324 10.4055H2L2.79251 5.54723H3.96567ZM9.9216 8.62416H8.2617L7.97465 10.4055H6.84519L7.63768 5.54723H10.7703L10.5955 6.59987H8.58619L8.43019 7.57153H10.0901L9.9216 8.62416ZM11.6662 10.5C11.0754 10.5 10.6677 10.3516 10.4431 10.0547C10.2891 9.84773 10.2122 9.56433 10.2122 9.20445C10.2122 9.03801 10.2288 8.85583 10.2621 8.65789L10.4805 7.30837C10.676 6.10279 11.3583 5.5 12.5273 5.5C13.0099 5.5 13.376 5.61246 13.6256 5.83738C13.8752 6.05781 14 6.36145 14 6.74831C14 6.90576 13.9792 7.06545 13.9376 7.2274C13.9002 7.38934 13.8627 7.5108 13.8253 7.59177L13.7629 7.71323H12.6584C12.7665 7.55128 12.8206 7.3646 12.8206 7.15317C12.8206 6.74831 12.6646 6.54588 12.3526 6.54588C11.9324 6.54588 11.6807 6.80904 11.5975 7.33536L11.3853 8.6309C11.3645 8.75236 11.3541 8.87157 11.3541 8.98853C11.3541 9.29892 11.5226 9.45412 11.8596 9.45412C12.2007 9.45412 12.4191 9.26968 12.5148 8.90081H12.0031L12.1279 8.15182H13.7816L13.6817 8.73212L13.6505 8.9278C13.4758 9.97593 12.8144 10.5 11.6662 10.5Z" fill="white"/>
</g>
<defs>
<clipPath id="clip0_270_5">
<rect width="16" height="16" fill="white"/>
</clipPath>
</defs>
</svg>
