<svg width="24" height="10" viewBox="0 0 24 10" fill="#000" xmlns="http://www.w3.org/2000/svg">
<path d="M4.008 0.36L5.292 4.5L8.052 0.36H10.32L8.796 9H6.624L7.488 4.128L5.64 7.032H4.068L3.252 4.128L2.388 9H0.228L1.752 0.36H4.008ZM15.4613 5.832H12.2693L11.7173 9H9.54534L11.0693 0.36H17.0933L16.7573 2.232H12.8933L12.5933 3.96H15.7853L15.4613 5.832ZM18.8161 9.168C17.6801 9.168 16.8961 8.904 16.4641 8.376C16.1681 8.008 16.0201 7.504 16.0201 6.864C16.0201 6.568 16.0521 6.244 16.1161 5.892L16.5361 3.492C16.9121 1.348 18.2241 0.275999 20.4721 0.275999C21.4001 0.275999 22.1041 0.475999 22.5841 0.875999C23.0641 1.268 23.3041 1.808 23.3041 2.496C23.3041 2.776 23.2641 3.06 23.1841 3.348C23.1121 3.636 23.0401 3.852 22.9681 3.996L22.8481 4.212H20.7241C20.9321 3.924 21.0361 3.592 21.0361 3.216C21.0361 2.496 20.7361 2.136 20.1361 2.136C19.3281 2.136 18.8441 2.604 18.6841 3.54L18.2761 5.844C18.2361 6.06 18.2161 6.272 18.2161 6.48C18.2161 7.032 18.5401 7.308 19.1881 7.308C19.8441 7.308 20.2641 6.98 20.4481 6.324H19.4641L19.7041 4.992H22.8841L22.6921 6.024L22.6321 6.372C22.2961 8.236 21.0241 9.168 18.8161 9.168Z" fill="#000"/>
</svg>
