<svg width="32" height="32" viewBox="0 0 32 32" fill="none" xmlns="http://www.w3.org/2000/svg">
<g clip-path="url(#clip0_287_2)">
<circle cx="16" cy="16" r="16" fill="#444444"/>
<path d="M23.4615 9.53906C23.4615 8.79688 23.4123 7.88594 23.0769 7C23.0769 7 20.8831 7.01562 18.8139 9.00625C17.8585 8.72344 16.837 8.5625 15.7693 8.5625C14.7016 8.5625 13.68 8.72344 12.7247 9.00625C10.6554 7.01562 8.4616 7 8.4616 7C8.12775 7.88594 8.07698 8.79688 8.07698 9.53906C8.07698 10.6625 8.27391 11.3516 8.39237 11.6922C7.23391 12.9984 6.53853 14.6156 6.53853 16.375C6.53853 19.7906 9.08467 21.8922 12.6924 22.625C11.8816 23.3484 11.3847 24.3594 11.2262 25.4938C10.8831 25.6625 10.3847 25.75 9.80775 25.75C9.34467 25.75 8.44467 25.5281 7.60622 24.2016C7.26775 23.6641 6.53853 22.625 5.57699 22.625C5.3893 22.625 4.99392 22.6125 5.00007 22.9078C5.00315 23.0484 5.21545 23.05 5.6693 23.4609C6.0493 23.8062 6.40314 24.3719 6.53853 24.9688C6.7616 25.9484 7.65545 27.8984 9.80775 27.8984C10.577 27.8984 11.1539 27.7031 11.1539 27.7031V31.2828C12.6108 31.7469 14.1616 32 15.7693 32C17.377 32 18.9277 31.7469 20.3846 31.2828V26.1406C20.3846 24.7359 19.8092 23.4844 18.8462 22.625C22.4539 21.8922 25 19.7906 25 16.375C25 14.6469 24.3292 13.0547 23.2062 11.7609C23.3031 11.4562 23.4615 10.75 23.4615 9.53906Z" fill="black"/>
</g>
<defs>
<clipPath id="clip0_287_2">
<rect width="32" height="32" fill="white"/>
</clipPath>
</defs>
</svg>
