<svg height="32px" style="shape-rendering:geometricPrecision; text-rendering:geometricPrecision; image-rendering:optimizeQuality; fill-rule:evenodd; clip-rule:evenodd" viewBox="0 0 6.82666 6.82666" width="32px" xml:space="preserve" xmlns="http://www.w3.org/2000/svg" xmlns:xlink="http://www.w3.org/1999/xlink"><defs><style type="text/css">
                <![CDATA[
                .fil0 {fill:#A94238}
                .fil1 {fill:#DC4E41}
                .fil2 {fill:#FFFFFE}
                ]]>
              </style></defs><g id="Layer_x0020_1"><circle class="fil0" cx="3.41333" cy="3.41333" r="3.41333"/><circle class="fil1" cx="3.41333" cy="3.41333" r="3.21667"/><path class="fil1" d="M1.41413 3.4149c-0.011,0.530413 0.354382,1.03637 0.856917,1.20135 0.473193,0.159134 1.05512,0.0402402 1.37008,-0.365106 0.229882,-0.284122 0.282213,-0.662681 0.257272,-1.01624 -0.405346,-0.00377559 -0.810756,-0.00241339 -1.21529,-0.00192913 -0.000814961,0.144358 0,0.288189 0.000488189,0.432488 0.242575,0.00671654 0.485362,0.00377559 0.728134,0.00856693 -0.061189,0.210102 -0.200953,0.405425 -0.41261,0.481315 -0.409126,0.18 -0.930681,-0.0552913 -1.05946,-0.484256 -0.15528,-0.410992 0.0990354,-0.906772 0.518866,-1.02615 0.260232,-0.0914803 0.528508,0.0115472 0.751224,0.146772 0.112642,-0.105421 0.218335,-0.218394 0.322181,-0.332402 -0.253283,-0.211677 -0.578421,-0.341551 -0.912693,-0.313106 -0.655945,0.00782677 -1.23004,0.613307 -1.20511,1.26871z"/><path class="fil1" d="M4.68711 2.8687c-0.0010315,0.121012 -0.00239764,0.24222 -0.00294094,0.362965 -0.1215,0.00111024 -0.242244,0.00185039 -0.362984,0.00241339l0 0.361661c0.12074,0.000547244 0.24224,0.0010315 0.362984,0.0023937 0.00109055,0.120744 0.00109055,0.241488 0.0023937,0.362988 0.120197,0 0.240941,-0.000838583 0.361661,0 0.000566929,-0.1215 0.00111024,-0.242244 0.00241732,-0.363531 0.12074,-0.000543307 0.242028,-0.00130315 0.362693,-0.00185039l0 -0.361681c-0.120665,-0.000543307 -0.241953,-0.00109055 -0.362693,-0.0023937 -0.000838583,-0.120744 -0.00185039,-0.241953 -0.00241732,-0.362693 -0.12072,-0.000271654 -0.240917,-0.000271654 -0.361114,-0.000271654z"/><path class="fil0" d="M3.29768 3.75227c-0.205433,-0.0023937 -0.410909,-0.00115748 -0.616299,-0.00684646l-0.077374 -0.00214173 -0.000409449 -0.0774016c-0.000759843,-0.144402 -0.00130315,-0.288807 -0.000759843,-0.433209l0.000299213 -0.0795472 0.0795472 -0.000149606c0.405465,-0.000759843 0.810941,-0.00184252 1.2164,0.00166142l0.0739646 0.000637795 0.00514567 0.0737913c0.0261063,0.374472 -0.0356378,0.770382 -0.274669,1.07179 -0.339043,0.427512 -0.95152,0.559606 -1.458,0.391311 -0.536673,-0.178323 -0.906535,-0.714882 -0.91139,-1.27657 -0.00604331,-0.698937 0.584087,-1.31553 1.28123,-1.3493 0.351035,-0.0170079 0.699091,0.107004 0.967862,0.331626l0.0640551 0.0535354 -0.0562126 0.0617165c-0.105354,0.115661 -0.212378,0.229984 -0.326661,0.336937l-0.0442795 0.0414449 -0.0518622 -0.0314488c-0.203295,-0.12328 -0.448516,-0.21437 -0.68578,-0.138937 -0.37439,0.119028 -0.593035,0.551925 -0.467059,0.923992 0.128839,0.38052 0.582713,0.583524 0.954091,0.435591 0.150878,-0.0601024 0.26248,-0.18339 0.328165,-0.32848zm1.83239 -0.599921c0.0945433,0.000748031 0.189091,0.00129528 0.283638,0.00173622l0.079622 0.000374016 0 0.520917 -0.0796339 0.000362205c-0.0946024,0.000429134 -0.189209,0.000814961 -0.283811,0.00135827 -0.000791339,0.0947008 -0.00122441,0.189406 -0.00166535,0.28411l-0.000374016 0.0799843 -0.0799843 -0.000362205c-0.120433,-0.000547244 -0.240866,0 -0.361299,0l-0.0791417 0 -0.000850394 -0.0791378c-0.00101969,-0.0947756 -0.00124016,-0.189555 -0.00181496,-0.284335 -0.0946417,-0.00080315 -0.189287,-0.00118898 -0.283933,-0.00161811l-0.0796339 -0.000362205 0 -0.520772 0.0794567 -0.00053937c0.0946535,-0.000637795 0.189307,-0.00106299 0.283957,-0.00174803 0.000602362,-0.0948307 0.00149213,-0.189654 0.00251575,-0.284476l0.000854331 -0.0791339 0.519874 0 0.000374016 0.079622c0.000440945,0.0946732 0.00115748,0.189346 0.00185039,0.28402z"/><g id="_234531312"><path class="fil2" d="M1.41413 3.4149c-0.024937,-0.655402 0.549161,-1.26088 1.20511,-1.26871 0.334272,-0.0284449 0.659409,0.101429 0.912693,0.313106 -0.103846,0.114008 -0.209539,0.22698 -0.322181,0.332402 -0.222992,-0.135224 -0.490992,-0.238524 -0.751496,-0.146772 -0.419835,0.119362 -0.674146,0.615181 -0.518594,1.02588 0.128508,0.429236 0.650339,0.664528 1.05946,0.484252 0.211657,-0.0756142 0.351146,-0.270937 0.41261,-0.481039 -0.242772,-0.00481102 -0.485559,-0.00185039 -0.728134,-0.00856693 -0.000759843,-0.144299 -0.00130315,-0.28813 -0.000759843,-0.432488 0.404803,-0.000759843 0.810213,-0.00184646 1.21556,0.00165748 0.0246693,0.353835 -0.0273898,0.732394 -0.257543,1.01652 -0.314685,0.405346 -0.896614,0.52424 -1.3701,0.365106 -0.50224,-0.164972 -0.867622,-0.670933 -0.856622,-1.20135z" id="_234531984"/><path class="fil2" d="M4.68711 2.8687l0.361114 0c0.000566929,0.121012 0.00157874,0.24222 0.00241732,0.362965 0.12074,0.00111024 0.242028,0.00185039 0.362693,0.00241339l0 0.361661c-0.120665,0.000547244 -0.241953,0.0010315 -0.362693,0.00185039 -0.00130709,0.121287 -0.00185039,0.242031 -0.00241732,0.36324 -0.12072,-0.000547244 -0.241677,0 -0.361661,0 -0.00130315,-0.121209 -0.00130315,-0.241953 -0.0023937,-0.362697 -0.120744,-0.0013622 -0.242244,-0.00184646 -0.362984,-0.0023937l0 -0.361681c0.12074,-0.000814961 0.241484,-0.00128346 0.362984,-0.0023937 0.000543307,-0.120744 0.00163386,-0.241953 0.00294094,-0.362965z" id="_234531336"/></g></g></svg>