<svg width="24" height="24" viewBox="0 0 24 24" fill="none" xmlns="http://www.w3.org/2000/svg">
<g clip-path="url(#clip0_35_214)">
<path d="M11.1429 23.1429L16.5257 10.5772C16.5765 10.4554 16.6622 10.3513 16.772 10.2781C16.8819 10.2048 17.0109 10.1658 17.1429 10.1658C17.2749 10.1658 17.4039 10.2048 17.5137 10.2781C17.6236 10.3513 17.7093 10.4554 17.76 10.5772L23.1429 23.1429" stroke="url(#paint0_linear_35_214)" stroke-width="1.71429" stroke-linecap="round" stroke-linejoin="round"/>
<path d="M13.56 17.5029H20.7257" stroke="url(#paint1_linear_35_214)" stroke-width="1.71429" stroke-linecap="round" stroke-linejoin="round"/>
<path d="M0.857147 4.28577H16.2857" stroke="url(#paint2_linear_35_214)" stroke-width="1.71429" stroke-linecap="round" stroke-linejoin="round"/>
<path d="M8.57144 0.857178V4.28575" stroke="url(#paint3_linear_35_214)" stroke-width="1.71429" stroke-linecap="round" stroke-linejoin="round"/>
<path d="M13.7143 4.28577L3.42859 16.2858" stroke="url(#paint4_linear_35_214)" stroke-width="1.71429" stroke-linecap="round" stroke-linejoin="round"/>
<path d="M3.42859 4.28577L10.1829 12.1715" stroke="url(#paint5_linear_35_214)" stroke-width="1.71429" stroke-linecap="round" stroke-linejoin="round"/>
</g>
<defs>
<linearGradient id="paint0_linear_35_214" x1="17.1429" y1="10.1658" x2="17.1429" y2="23.1429" gradientUnits="userSpaceOnUse">
<stop stop-color="#2F37FF"/>
<stop offset="1" stop-color="#0909EA"/>
</linearGradient>
<linearGradient id="paint1_linear_35_214" x1="17.1429" y1="17.5029" x2="17.1429" y2="18.5029" gradientUnits="userSpaceOnUse">
<stop stop-color="#2F37FF"/>
<stop offset="1" stop-color="#0909EA"/>
</linearGradient>
<linearGradient id="paint2_linear_35_214" x1="8.57143" y1="4.28577" x2="8.57143" y2="5.28577" gradientUnits="userSpaceOnUse">
<stop stop-color="#2F37FF"/>
<stop offset="1" stop-color="#0909EA"/>
</linearGradient>
<linearGradient id="paint3_linear_35_214" x1="9.07144" y1="0.857178" x2="9.07144" y2="4.28575" gradientUnits="userSpaceOnUse">
<stop stop-color="#2F37FF"/>
<stop offset="1" stop-color="#0909EA"/>
</linearGradient>
<linearGradient id="paint4_linear_35_214" x1="8.57145" y1="4.28577" x2="8.57145" y2="16.2858" gradientUnits="userSpaceOnUse">
<stop stop-color="#2F37FF"/>
<stop offset="1" stop-color="#0909EA"/>
</linearGradient>
<linearGradient id="paint5_linear_35_214" x1="6.80573" y1="4.28577" x2="6.80573" y2="12.1715" gradientUnits="userSpaceOnUse">
<stop stop-color="#2F37FF"/>
<stop offset="1" stop-color="#0909EA"/>
</linearGradient>
<clipPath id="clip0_35_214">
<rect width="24" height="24" fill="white"/>
</clipPath>
</defs>
</svg>
