<svg width="32" height="32" viewBox="0 0 32 32" fill="none" xmlns="http://www.w3.org/2000/svg">
<g clip-path="url(#clip0_248_13)">
<path d="M0.5 0.25V31.5H31.75V0.25H0.5ZM17.0298 26.8783C16.5685 27.8155 15.688 28.4313 14.6678 28.7285C13.1 29.0885 11.6005 28.8833 10.485 28.2138C9.7385 27.7558 9.1555 27.0508 8.75975 26.2385L11.1397 24.781C11.1605 24.7898 11.223 24.9027 11.3065 25.0487C11.61 25.5572 11.8717 25.9173 12.3862 26.17C12.8917 26.3425 14.0015 26.4527 14.43 25.5632C14.6918 25.1107 14.6085 23.6563 14.6085 22.047C14.6082 19.5183 14.62 17 14.62 14.5H17.5473C17.5473 17.25 17.5623 19.8545 17.5473 22.538C17.5535 24.183 17.6963 25.6495 17.0298 26.8783ZM29.1733 26.0513C28.1558 29.5318 22.4827 29.6447 20.2157 27.3452C19.7367 26.804 19.4365 26.5212 19.1507 25.8965C20.3555 25.2035 20.3555 25.2035 21.5278 24.5252C22.1645 25.504 22.7533 26.0423 23.8125 26.2625C25.2495 26.438 26.6953 25.9442 26.371 24.418C26.0378 23.1715 23.4285 22.8682 21.6528 21.5352C19.85 20.3245 19.4275 17.3825 20.909 15.7015C21.4028 15.0797 22.2448 14.6157 23.1283 14.3927L24.0502 14.2735C25.8205 14.2378 26.927 14.7053 27.7393 15.6123C27.9653 15.8413 28.1497 16.0883 28.4947 16.6235C27.5517 17.2245 27.5548 17.2188 26.204 18.0933C25.9155 17.4718 25.4367 17.0818 24.9307 16.9123C24.1452 16.6743 23.1547 16.933 22.9492 17.763C22.878 18.0188 22.8928 18.2568 23.006 18.6793C23.3243 19.405 24.3923 19.7205 25.3503 20.1607C28.108 21.2792 29.0392 22.4785 29.2682 23.906C29.4887 25.135 29.215 25.9323 29.1733 26.0513Z" fill="#F0DB4F"/>
</g>
<defs>
<clipPath id="clip0_248_13">
<rect width="32" height="32" fill="white"/>
</clipPath>
</defs>
</svg>
