<svg width="32" height="32" viewBox="0 0 32 32" fill="none" xmlns="http://www.w3.org/2000/svg">
<path d="M16 18.85C17.574 18.85 18.85 17.574 18.85 16C18.85 14.426 17.574 13.15 16 13.15C14.426 13.15 13.15 14.426 13.15 16C13.15 17.574 14.426 18.85 16 18.85Z" fill="#61DAFB"/>
<path d="M26.825 11.3C26.275 11.1 25.7 10.9 25.1 10.725C25.25 10.125 25.375 9.525 25.475 8.95C26 5.65 25.425 3.325 23.825 2.425C23.35 2.15 22.825 2.025 22.225 2.025C20.475 2.025 18.25 3.325 16 5.5C13.75 3.325 11.525 2.025 9.77497 2.025C9.17497 2.025 8.64998 2.15 8.17498 2.425C6.57498 3.35 5.99998 5.675 6.52498 8.95C6.62498 9.525 6.74998 10.125 6.89998 10.725C6.29998 10.9 5.72498 11.075 5.17498 11.3C2.04998 12.5 0.349976 14.15 0.349976 16C0.349976 17.85 2.07498 19.5 5.17498 20.7C5.72498 20.9 6.29998 21.1 6.89998 21.275C6.74998 21.875 6.62498 22.475 6.52498 23.05C5.99998 26.35 6.57498 28.675 8.17498 29.575C8.64998 29.85 9.17497 29.975 9.77497 29.975C11.55 29.975 13.775 28.675 16 26.5C18.25 28.675 20.475 29.975 22.225 29.975C22.825 29.975 23.35 29.85 23.825 29.575C25.425 28.65 26 26.325 25.475 23.05C25.375 22.475 25.25 21.875 25.1 21.275C25.7 21.1 26.275 20.925 26.825 20.7C29.95 19.5 31.65 17.85 31.65 16C31.65 14.15 29.95 12.5 26.825 11.3ZM23.125 3.675C24.15 4.275 24.5 6.125 24.075 8.75C24 9.275 23.875 9.825 23.725 10.4C22.425 10.1 21.05 9.9 19.6 9.775C18.75 8.575 17.875 7.5 17 6.525C18.85 4.7 20.725 3.45 22.25 3.45C22.575 3.45 22.875 3.525 23.125 3.675ZM20.325 18.5C19.875 19.3 19.35 20.1 18.8 20.9C17.875 20.975 16.95 21 16 21C15.025 21 14.1 20.975 13.2 20.9C12.65 20.1 12.15 19.3 11.7 18.5C11.225 17.675 10.775 16.825 10.375 16C10.775 15.175 11.225 14.325 11.7 13.5C12.15 12.7 12.675 11.9 13.225 11.1C14.15 11.025 15.075 11 16.025 11C17 11 17.925 11.025 18.825 11.1C19.375 11.9 19.875 12.7 20.325 13.5C20.8 14.325 21.25 15.175 21.65 16C21.225 16.825 20.8 17.65 20.325 18.5ZM22.4 17.675C22.775 18.55 23.075 19.4 23.35 20.25C22.5 20.45 21.6 20.6 20.65 20.725C20.95 20.25 21.275 19.75 21.55 19.225C21.85 18.7 22.125 18.175 22.4 17.675ZM16 24.45C15.4 23.8 14.825 23.1 14.275 22.375C14.85 22.4 15.425 22.425 16 22.425C16.575 22.425 17.15 22.4 17.725 22.375C17.175 23.1 16.6 23.8 16 24.45ZM11.35 20.7C10.4 20.575 9.49997 20.425 8.64997 20.225C8.92497 19.4 9.22498 18.525 9.59998 17.65C9.87498 18.15 10.15 18.675 10.45 19.175C10.75 19.725 11.05 20.2 11.35 20.7ZM9.59998 14.325C9.22498 13.45 8.92497 12.6 8.64997 11.75C9.49997 11.55 10.4 11.4 11.35 11.275C11.05 11.75 10.725 12.25 10.45 12.775C10.15 13.3 9.87498 13.825 9.59998 14.325ZM16 7.55C16.6 8.2 17.175 8.9 17.725 9.625C17.15 9.6 16.575 9.575 16 9.575C15.425 9.575 14.85 9.6 14.275 9.625C14.825 8.9 15.4 8.2 16 7.55ZM21.55 12.8L20.65 11.3C21.6 11.425 22.5 11.575 23.35 11.775C23.075 12.6 22.775 13.475 22.4 14.35C22.125 13.825 21.85 13.3 21.55 12.8ZM7.92498 8.75C7.49998 6.125 7.84997 4.275 8.87497 3.675C9.12497 3.525 9.42497 3.45 9.74997 3.45C11.25 3.45 13.125 4.675 15 6.525C14.125 7.475 13.25 8.575 12.4 9.775C10.95 9.9 9.57497 10.125 8.27497 10.4C8.12497 9.825 8.02498 9.275 7.92498 8.75ZM1.74998 16C1.74998 14.825 3.17498 13.575 5.67498 12.65C6.17498 12.45 6.72498 12.275 7.27498 12.125C7.67498 13.375 8.17497 14.7 8.77497 16.025C8.17497 17.35 7.64998 18.65 7.27498 19.9C3.82498 18.9 1.74998 17.4 1.74998 16ZM8.87497 28.325C7.84997 27.725 7.49998 25.875 7.92498 23.25C7.99998 22.725 8.12497 22.175 8.27497 21.6C9.57497 21.9 10.95 22.1 12.4 22.225C13.25 23.425 14.125 24.5 15 25.475C13.15 27.3 11.275 28.55 9.74997 28.55C9.42497 28.55 9.12497 28.475 8.87497 28.325ZM24.075 23.25C24.5 25.875 24.15 27.725 23.125 28.325C22.875 28.475 22.575 28.55 22.25 28.55C20.75 28.55 18.875 27.325 17 25.475C17.875 24.525 18.75 23.425 19.6 22.225C21.05 22.1 22.425 21.875 23.725 21.6C23.875 22.175 23.975 22.725 24.075 23.25ZM26.325 19.35C25.825 19.55 25.275 19.725 24.725 19.875C24.325 18.625 23.825 17.3 23.225 15.975C23.825 14.65 24.35 13.35 24.725 12.1C28.175 13.1 30.25 14.6 30.25 16C30.25 17.175 28.8 18.425 26.325 19.35Z" fill="#61DAFB"/>
</svg>
