<svg width="36" height="32" viewBox="0 0 36 32" fill="none" xmlns="http://www.w3.org/2000/svg">
<path fill-rule="evenodd" clip-rule="evenodd" d="M0.342834 14.039C0.342834 14.2147 0.401053 14.3307 0.433678 14.4435C0.646303 15.1767 1.10333 15.806 1.64558 16.38C2.4179 17.198 3.36374 17.8565 4.33265 18.4757C5.17302 19.0127 6.03055 19.5377 6.8743 20.0707C7.01915 20.1622 7.15612 20.2675 7.31333 20.3797C7.17805 20.4447 7.06555 20.502 6.94855 20.5548C5.83508 21.0568 4.7638 21.6195 3.77633 22.3013C3.18121 22.7123 2.60577 23.149 2.19937 23.7197C1.54546 24.6377 1.31399 25.6157 1.8014 26.66C1.94371 26.965 2.16083 27.2285 2.46712 27.4233C2.5664 27.4863 2.67777 27.5487 2.79393 27.5732C3.09149 27.6355 3.39468 27.6763 3.6959 27.7255L4.54893 27.725C5.49224 27.6503 6.3509 27.363 7.12687 26.887C8.33962 26.143 9.15665 25.1455 9.50793 23.8652C9.7633 22.9347 9.77371 22.0032 9.47277 21.077C9.44397 20.9912 9.41075 20.9066 9.37321 20.8235C9.33665 20.7402 9.29362 20.6593 9.24299 20.5555L11.1769 19.567L11.2058 19.589C11.1707 19.6913 11.1333 19.7932 11.1015 19.8965C10.8717 20.6425 10.719 21.4015 10.7738 22.1758C10.8323 23.0008 11.0914 23.773 11.6347 24.4622C12.0741 25.0197 13.1209 25.0405 13.5877 24.481C13.7534 24.2823 13.914 24.0745 14.0346 23.8528C14.3499 23.274 14.6419 22.685 14.9431 22.1L14.9957 21.993C14.974 22.27 14.9487 22.5133 14.9372 22.7568C14.9192 23.137 14.9442 23.515 15.0905 23.8768C15.2156 24.1863 15.4285 24.4175 15.8273 24.4583C16.1001 24.486 16.3176 24.375 16.5181 24.2342C16.8287 24.016 17.0862 23.7439 17.2749 23.4345C17.8096 22.5617 18.3586 21.6942 18.8432 20.7995C19.3674 19.8317 19.8259 18.8357 20.3127 17.8515L20.3931 17.677C20.5082 18.0788 20.5883 18.4722 20.736 18.8447C20.9076 19.277 21.1199 19.699 21.3511 20.1092C21.4605 20.303 21.4478 20.4287 21.2962 20.5912C20.6617 21.2712 20.0382 21.9595 19.4141 22.647C19.276 22.7987 19.1385 22.9532 19.0235 23.119C18.9537 23.2237 18.9078 23.3395 18.8885 23.46C18.8691 23.5709 18.8988 23.6841 18.9713 23.776C19.0438 23.8679 19.1535 23.9312 19.2774 23.9527C19.5275 24.0006 19.7839 24.0169 20.0391 24.001C20.9101 23.944 21.701 23.6723 22.4001 23.2118C23.3061 22.6153 23.5969 21.8013 23.3775 20.8365C23.3181 20.5748 23.2132 20.3203 23.1111 20.068C23.0653 19.9543 23.0622 19.8745 23.1457 19.7685C23.87 18.8492 24.4887 17.874 25.0641 16.8762C25.0869 16.837 25.1103 16.7978 25.1502 16.7558C25.3367 17.6183 25.6174 18.4495 26.1202 19.2038C25.8637 19.4235 25.6098 19.6228 25.38 19.8423C24.874 20.3258 24.4353 20.8507 24.2063 21.491C24.1079 21.767 24.0322 22.0475 24.0761 22.3423C24.1442 22.8 24.5661 23.0975 25.0726 22.9932C26.1565 22.7702 27.0922 22.3162 27.776 21.512C28.2361 20.9705 28.278 20.3665 28.0853 19.7337C28.0325 19.5617 27.9697 19.3925 27.9022 19.1952C28.1697 19.1215 28.4304 19.033 28.7001 18.9783C30.1005 18.6943 31.4856 18.7438 32.8351 19.1933C33.6229 19.4558 34.2593 19.895 34.6368 20.586C35.0977 21.4308 34.8429 22.2323 33.9471 22.7663C33.8636 22.816 33.768 22.8552 33.6988 22.9175C33.6766 22.9403 33.6601 22.967 33.6501 22.9959C33.6402 23.0247 33.6372 23.0551 33.6411 23.085C33.6471 23.1157 33.7385 23.1542 33.7911 23.1537C34.0855 23.1517 34.3243 23.0145 34.5535 22.8735C35.1278 22.5203 35.5469 22.045 35.6372 21.4193L35.6549 21.3722L35.6332 20.9648C35.6245 20.9413 35.6397 20.918 35.6377 20.9002C35.5157 19.989 34.9681 19.2823 34.1716 18.7283C33.2491 18.087 32.1598 17.823 31.0078 17.7812C30.0735 17.7455 29.1404 17.8732 28.2614 18.157C28.0091 18.2382 27.7591 18.3345 27.5054 18.4252C27.4714 18.3705 27.4348 18.318 27.4047 18.2638C27.1443 17.7898 26.8287 17.3367 26.759 16.7932C26.7095 16.4072 26.6487 16.0218 26.7519 15.64C26.8512 15.2728 26.9806 14.9118 27.1024 14.5495C27.1651 14.363 27.1209 14.2585 26.9207 14.1745C26.8509 14.1436 26.7764 14.1218 26.6996 14.11C26.2074 14.0465 25.722 14.0828 25.2453 14.206C25.0765 14.2498 24.9539 14.3338 24.9165 14.4998C24.8951 14.595 24.8515 14.6862 24.8211 14.7802C24.6966 15.171 24.6082 15.5692 24.4069 15.9415C23.9023 16.8752 23.3263 17.7738 22.7368 18.6658C22.673 18.762 22.6057 18.8565 22.5253 18.9732C22.3183 18.5882 22.0975 18.2427 22.0306 17.8377C21.9549 17.3797 21.8953 16.9225 22.0236 16.468C22.1189 16.129 22.2435 15.7963 22.3582 15.4618C22.4125 15.3028 22.3875 15.2192 22.2255 15.1355C22.1436 15.0932 22.0511 15.0557 21.9589 15.0435C21.4542 14.9752 20.9385 15.0127 20.4531 15.153C20.3003 15.197 20.2202 15.2848 20.1735 15.4248C20.0362 15.8378 19.9192 16.2607 19.7266 16.6535C18.9464 18.2435 18.1437 19.8252 17.3419 21.4067C17.1745 21.737 16.9785 22.0558 16.7898 22.3773C16.742 22.4588 16.6722 22.5305 16.6126 22.607C16.5648 22.5568 16.5462 22.5222 16.5465 22.4877C16.5479 22.2845 16.5206 22.0752 16.5642 21.8787C16.6981 21.2845 16.846 20.6927 17.008 20.104C17.1402 19.6175 17.2941 19.1355 17.4406 18.6523C17.4898 18.4905 17.4906 18.3393 17.3599 18.2033C17.1402 17.9755 16.6812 17.9255 16.409 18.101L16.2886 18.1615L16.3119 17.989C16.3693 17.6193 16.3808 17.2507 16.2666 16.8865C16.1243 16.4325 15.7598 16.1712 15.23 16.1857C14.983 16.1925 14.7237 16.23 14.4951 16.31C13.5335 16.645 12.7941 17.2382 12.1646 17.952C12.1063 18.0183 12.0339 18.0738 11.9517 18.1155C11.1381 18.5165 10.3219 18.9125 9.50596 19.31L8.5978 19.7523C8.35424 19.5458 8.1329 19.3315 7.88174 19.1497C7.11477 18.5937 6.33543 18.0515 5.56312 17.5018C4.87855 17.0145 4.21537 16.507 3.70799 15.8617C3.33055 15.3817 3.08727 14.8565 3.06393 14.263C3.0344 13.5067 3.27571 12.8157 3.70883 12.1725C4.2629 11.3495 5.01862 10.689 5.84943 10.0907C6.72833 9.45825 7.67896 8.92125 8.66418 8.431C10.0426 7.74525 11.4604 7.13825 12.9805 6.7375C14.5392 6.3265 16.1207 6.09125 17.7519 6.25525C18.3932 6.31975 19.0159 6.45025 19.5876 6.729C20.0256 6.94225 20.3847 7.2215 20.5518 7.658C20.7166 8.0875 20.7115 8.52275 20.5973 8.959C20.3653 9.8425 19.8211 10.5708 19.1362 11.2215C18.0129 12.2883 16.6427 13.0145 15.1 13.4943C14.213 13.7705 13.2902 13.9454 12.3536 14.015C11.5861 14.0723 10.8346 14.0117 10.1078 13.7745C9.62662 13.6172 9.20755 13.3768 8.87062 13.0278C8.81043 12.9653 8.73337 12.8975 8.62115 12.956C8.51118 13.0135 8.49177 13.1065 8.52862 13.2008C8.59021 13.3573 8.64702 13.5202 8.74293 13.6602C8.98396 14.0115 9.33552 14.2662 9.72252 14.4847C10.4659 14.905 11.2967 15.0463 12.1581 15.079C13.4654 15.1293 14.7409 14.9558 15.9983 14.644C17.7936 14.199 19.3545 13.413 20.6063 12.173C21.6486 11.1405 22.3931 9.97525 22.5526 8.56825C22.6305 7.8815 22.5475 7.20875 22.1858 6.58225C21.7935 5.9035 21.1697 5.39875 20.4238 5.051C19.3376 4.54475 18.1654 4.25 16.9554 4.25H15.7432C14.2779 4.25 12.8613 4.62325 11.4843 5.0685C10.442 5.40575 9.4199 5.80375 8.42765 6.24425C6.2668 7.204 4.25446 8.36125 2.60155 9.9525C1.77805 10.7453 1.08083 11.62 0.679772 12.65C0.558723 12.9575 0.454446 13.27 0.367303 13.5865M8.19702 22.5898C8.10337 23.7045 7.53496 24.6083 6.60599 25.3403C6.08343 25.7518 5.48408 26.0448 4.78602 26.1478C4.5329 26.185 4.27387 26.194 4.02833 26.1007C3.67818 25.9677 3.59971 25.6915 3.59296 25.3972C3.58255 24.9282 3.76733 24.5042 4.02074 24.1007C4.35149 23.5747 4.83637 23.1737 5.35415 22.7992C6.16977 22.209 7.05458 21.7095 7.96077 21.238L8.02912 21.213C8.16918 21.673 8.23583 22.1273 8.19702 22.5898ZM15.2727 17.745C15.2066 18.101 15.1239 18.4572 15.0069 18.8022C14.6025 19.9965 14.083 21.1537 13.5214 22.2955C13.4176 22.5067 13.2666 22.6995 13.1352 22.8997C13.1129 22.9305 13.0861 22.9586 13.0556 22.9832C12.8931 23.126 12.7389 23.1185 12.6568 22.9317C12.5612 22.7147 12.5024 22.4825 12.4518 22.2528C12.4177 22.0985 12.4259 21.9365 12.4152 21.7785C12.4262 20.655 12.8118 19.634 13.466 18.6835C13.7357 18.2915 14.0293 17.918 14.4779 17.67C14.6174 17.5929 14.7684 17.5335 14.9265 17.4935C15.1656 17.4337 15.3124 17.532 15.2727 17.745ZM20.1001 23.212L21.8351 21.4112C21.9074 22.08 20.6286 23.415 20.1001 23.212ZM25.6416 22.0002C25.5189 22.0627 25.3853 22.1078 25.2596 22.1655C25.1446 22.2185 25.1066 22.165 25.1032 22.077C25.1015 22.0161 25.1104 21.9553 25.1294 21.8967C25.3637 21.1622 25.7948 20.5352 26.4364 20.0252L26.4814 20.0047C26.7865 20.7635 26.4338 21.5967 25.6416 22.0002Z" fill="#CB6699"/>
</svg>
