<svg width="32" height="32" viewBox="0 0 32 32" fill="none" xmlns="http://www.w3.org/2000/svg">
<path d="M28.1695 7.5835L17.1338 1.18225C16.4385 0.78625 15.5277 0.78625 14.827 1.18225L3.705 7.5835C2.98775 7.99625 2.5 8.772 2.5 9.60175V22.3873C2.5 23.217 2.998 23.993 3.7155 24.408L6.64775 26.08C8.0545 26.773 8.44425 26.773 9.08425 26.773C11.1678 26.773 12.2498 25.5132 12.2498 23.316V10.6935C12.25 10.5152 12.3612 10.25 12.186 10.25H10.7805C10.6025 10.25 10.25 10.5152 10.25 10.6932V23.3158C10.25 24.2898 9.346 25.259 7.6995 24.4357L4.669 22.6825C4.5635 22.625 4.5 22.5093 4.5 22.3873V9.60175C4.5 9.48125 4.61575 9.36025 4.72275 9.2985L15.8173 2.90825C15.8717 2.87931 15.9325 2.86418 15.9941 2.86418C16.0558 2.86418 16.1165 2.87931 16.171 2.90825L27.1618 9.297C27.267 9.36025 27.2502 9.4775 27.2502 9.60175V22.3873C27.2502 22.5093 27.2733 22.628 27.1695 22.6868L16.1362 29.0807C16.0417 29.1375 15.9187 29.1375 15.815 29.0807L12.9858 27.3935C12.9005 27.344 12.7977 27.3262 12.7157 27.372C11.9295 27.8177 11.7835 27.877 11.046 28.1327C10.8642 28.196 10.5962 28.3057 11.148 28.615L14.8475 30.8035C15.2007 31.0075 15.6014 31.115 16.0093 31.115C16.4187 31.1157 16.8211 31.0082 17.1758 30.8035L28.1698 24.408C28.8875 23.99 29.2502 23.217 29.2502 22.3873V9.60175C29.25 8.772 28.8873 7.99825 28.1695 7.5835ZM19.4317 20.3612C16.5 20.3612 15.8545 19.5525 15.6392 18.0947C15.6137 17.9377 15.4808 17.75 15.3208 17.75H13.8883C13.711 17.75 13.5682 17.965 13.5682 18.1415C13.5682 20.008 14.5832 22.2695 19.4317 22.2695C22.9412 22.2695 24.9538 20.9058 24.9538 18.4923C24.9538 16.0993 23.337 15.4713 19.9333 15.0208C16.4928 14.566 16.1432 14.3362 16.1432 13.5302C16.1432 12.8657 16.4392 11.9795 18.9867 11.9795C21.2627 11.9795 22.1018 12.468 22.447 14.0022C22.4768 14.1465 22.6085 14.25 22.7572 14.25H24.1957C24.2842 14.25 24.3685 14.2143 24.4305 14.151C24.4908 14.083 24.5222 13.9977 24.5145 13.9062C24.2912 11.264 22.5362 10.0328 18.9865 10.0328C15.8285 10.0328 13.945 11.3662 13.945 13.6015C13.945 16.026 15.8193 16.696 18.8505 16.9958C22.4768 17.3513 22.7588 17.8812 22.7588 18.5945C22.7588 19.8335 21.7642 20.3612 19.4317 20.3612Z" fill="#83CD29"/>
</svg>
